<svg xmlns="http://www.w3.org/2000/svg" version="1.1" xmlns:xlink="http://www.w3.org/1999/xlink" xmlns:svgjs="http://svgjs.com/svgjs" width="1440" height="560" preserveAspectRatio="none" viewBox="0 0 1440 560"><g mask="url(&quot;#SvgjsMask1084&quot;)" fill="none"><rect width="1440" height="560" x="0" y="0" fill="rgba(34, 57, 49, 1)"></rect><path d="M0,634.308C120.471,640.681,246.335,604.066,337.241,524.757C423.7,449.327,423.463,319.303,477.239,217.948C535.671,107.817,655.538,28.359,666.507,-95.829C678.236,-228.624,642.515,-383.567,537.639,-465.866C432.795,-548.14,280.922,-500.053,147.683,-502.963C49.149,-505.115,-43.365,-493.057,-141.144,-480.692C-259.757,-465.692,-389.715,-491.089,-487.72,-422.612C-593.836,-348.468,-689.273,-228.306,-687.621,-98.865C-685.971,30.38,-548.617,109.75,-479.531,218.994C-421.845,310.21,-396.645,419.59,-315.063,490.247C-225.967,567.411,-117.701,628.081,0,634.308" fill="#182722"></path><path d="M1440 881.869C1512.405 893.752 1595.511 937.5409999999999 1655.2649999999999 894.9590000000001 1715.578 851.979 1679.9 750.781 1715.266 685.71 1754.888 612.81 1883.964 579.984 1870.996 498.032 1857.949 415.582 1732.353 414.134 1664.579 365.401 1616.169 330.592 1583.31 279.97 1530.157 252.954 1468.135 221.43 1402.818 191.85500000000002 1333.441 197.09300000000002 1255.68 202.964 1164.44 218.877 1121.277 283.825 1077.863 349.151 1135.778 437.044 1122.59 514.363 1108.845 594.95 1009.5830000000001 666.693 1043.27 741.1800000000001 1076.917 815.579 1188.853 803.752 1265.811 831.043 1323.996 851.677 1379.08 871.871 1440 881.869" fill="#2d4b40"></path></g><defs><mask id="SvgjsMask1084"><rect width="1440" height="560" fill="#ffffff"></rect></mask></defs></svg>